<svg xmlns="http://www.w3.org/2000/svg" width="720" height="420">
<rect width="720" height="420" fill="#fff"/>
<text x="360" y="20" font-size="14" text-anchor="middle" font-weight="600">
frust optimization: instances solved / 344 (probe set, 10s each)</text>
<line x1="50" y1="380" x2="690" y2="380" stroke="#000"/>
<line x1="50" y1="40" x2="50" y2="380" stroke="#000"/>
<line x1="50" y1="40.0" x2="690"
 y2="40.0" stroke="#aaa" stroke-dasharray="3"/>
<line x1="46" y1="380.0" x2="50" y2="380.0" stroke="#000"/><text x="42" y="384.0" font-size="9" text-anchor="end">0</text><line x1="46" y1="330.6" x2="50" y2="330.6" stroke="#000"/><text x="42" y="334.6" font-size="9" text-anchor="end">50</text><line x1="46" y1="281.2" x2="50" y2="281.2" stroke="#000"/><text x="42" y="285.2" font-size="9" text-anchor="end">100</text><line x1="46" y1="231.7" x2="50" y2="231.7" stroke="#000"/><text x="42" y="235.7" font-size="9" text-anchor="end">150</text><line x1="46" y1="182.3" x2="50" y2="182.3" stroke="#000"/><text x="42" y="186.3" font-size="9" text-anchor="end">200</text><line x1="46" y1="132.9" x2="50" y2="132.9" stroke="#000"/><text x="42" y="136.9" font-size="9" text-anchor="end">250</text><line x1="46" y1="83.5" x2="50" y2="83.5" stroke="#000"/><text x="42" y="87.5" font-size="9" text-anchor="end">300</text><rect x="38.0" y="227.8" width="24" height="152.2" fill="#6ab0e8"/><rect x="100.0" y="188.3" width="24" height="191.7" fill="#6ab0e8"/><rect x="162.0" y="157.6" width="24" height="222.4" fill="#6ab0e8"/><rect x="224.0" y="122.0" width="24" height="258.0" fill="#6ab0e8"/><rect x="286.0" y="104.2" width="24" height="275.8" fill="#6ab0e8"/><rect x="348.0" y="94.4" width="24" height="285.6" fill="#6ab0e8"/><rect x="410.0" y="94.4" width="24" height="285.6" fill="#6ab0e8"/><rect x="472.0" y="93.4" width="24" height="286.6" fill="#6ab0e8"/><rect x="534.0" y="92.4" width="24" height="287.6" fill="#6ab0e8"/><rect x="596.0" y="92.4" width="24" height="287.6" fill="#6ab0e8"/><rect x="658.0" y="92.4" width="24" height="287.6" fill="#6ab0e8"/>
<polyline points="50.0,227.8 112.0,188.3 174.0,157.6 236.0,122.0 298.0,104.2 360.0,94.4 422.0,94.4 484.0,93.4 546.0,92.4 608.0,92.4 670.0,92.4" fill="none" stroke="#d62728" stroke-width="2"/>
<text x="50.0" y="221.8" font-size="11" text-anchor="middle">154</text><text x="50.0" y="395.0" font-size="9" text-anchor="middle">0</text><text x="112.0" y="182.3" font-size="11" text-anchor="middle">194</text><text x="112.0" y="395.0" font-size="9" text-anchor="middle">1</text><text x="174.0" y="151.6" font-size="11" text-anchor="middle">225</text><text x="174.0" y="395.0" font-size="9" text-anchor="middle">2</text><text x="236.0" y="116.0" font-size="11" text-anchor="middle">261</text><text x="236.0" y="395.0" font-size="9" text-anchor="middle">3</text><text x="298.0" y="98.2" font-size="11" text-anchor="middle">279</text><text x="298.0" y="395.0" font-size="9" text-anchor="middle">4</text><text x="360.0" y="88.4" font-size="11" text-anchor="middle">289</text><text x="360.0" y="395.0" font-size="9" text-anchor="middle">5</text><text x="422.0" y="88.4" font-size="11" text-anchor="middle">289</text><text x="422.0" y="395.0" font-size="9" text-anchor="middle">6</text><text x="484.0" y="87.4" font-size="11" text-anchor="middle">290</text><text x="484.0" y="395.0" font-size="9" text-anchor="middle">7</text><text x="546.0" y="86.4" font-size="11" text-anchor="middle">291</text><text x="546.0" y="395.0" font-size="9" text-anchor="middle">8</text><text x="608.0" y="86.4" font-size="11" text-anchor="middle">291</text><text x="608.0" y="395.0" font-size="9" text-anchor="middle">9</text><text x="670.0" y="86.4" font-size="11" text-anchor="middle">291</text><text x="670.0" y="395.0" font-size="9" text-anchor="middle">10</text>
<text x="360" y="414" font-size="11" text-anchor="middle">iteration</text>
</svg>